<svg width="44" height="44" viewBox="0 0 44 44" fill="none" xmlns="http://www.w3.org/2000/svg">
<rect x="16.7005" width="32" height="32" rx="16" transform="rotate(31.4592 16.7005 0)" fill="white"/>
<rect x="16.8661" y="0.687452" width="31" height="31" rx="15.5" transform="rotate(31.4592 16.8661 0.687452)" stroke="#89B4E2" stroke-opacity="0.18"/>
<g clip-path="url(#clip0_107_104)">
<path d="M30.2119 20.8689C29.5298 20.9135 28.8449 20.8478 28.1837 20.6743C28.0948 20.1464 27.846 19.6585 27.4708 19.2766C27.0956 18.8947 26.6122 18.6373 26.0859 18.5391C25.5596 18.4409 25.0159 18.5067 24.5282 18.7276C24.0406 18.9485 23.6326 19.3139 23.3593 19.7742L23.0549 20.2718C22.1665 19.7595 21.4187 19.0354 20.878 18.1641C20.3373 17.2928 20.0204 16.3012 19.9557 15.2778C19.9557 15.2778 15.2254 18.5384 18.4859 23.2687C17.0356 23.3373 15.6014 22.9392 14.3939 22.1328C17.3501 27.3607 24.3457 28.2215 27.8468 22.4992C27.9311 22.3603 28.0024 22.2139 28.0596 22.0619C28.8739 21.8718 29.6191 21.4587 30.2119 20.8689Z" stroke="#4A6FA5" stroke-width="1.16667" stroke-linecap="round" stroke-linejoin="round"/>
</g>
<defs>
<clipPath id="clip0_107_104">
<rect width="14" height="14" fill="white" transform="translate(19.6806 12.3741) rotate(31.4592)"/>
</clipPath>
</defs>
</svg>
