<svg width="44" height="44" viewBox="0 0 44 44" fill="none" xmlns="http://www.w3.org/2000/svg">
<rect x="16.7005" width="32" height="32" rx="16" transform="rotate(31.4592 16.7005 0)" fill="white"/>
<rect x="16.8661" y="0.687452" width="31" height="31" rx="15.5" transform="rotate(31.4592 16.8661 0.687452)" stroke="#89B4E2" stroke-opacity="0.18"/>
<g clip-path="url(#clip0_128_488)">
<path d="M20.7612 26.2652C17.9735 27.4905 17.688 25.1747 16.4944 25.0279M25.028 27.5025L24.7518 25.262C24.7395 24.9832 24.668 24.7103 24.542 24.4613C24.4161 24.2123 24.2385 23.993 24.0213 23.818C25.8142 23.3913 27.6398 22.4668 27.2502 19.3057C27.1504 18.4974 26.7436 17.7584 26.1141 17.2417C26.2909 16.502 26.1758 15.7226 25.793 15.0655C25.793 15.0655 25.0848 14.9471 23.6349 16.2014C22.2636 16.0053 20.8648 16.1777 19.5822 16.7009C17.8711 15.8363 17.2129 16.1231 17.2129 16.1231C17.0011 16.8536 17.0788 17.6376 17.4298 18.3122C16.941 18.9712 16.7265 19.7939 16.8312 20.6077C17.218 23.7456 19.2135 24.199 21.0592 24.2007C20.893 24.4211 20.775 24.6739 20.713 24.9428C20.6509 25.2117 20.6462 25.4907 20.6991 25.7615L20.9753 28.0021" stroke="#4A6FA5" stroke-width="1.16667" stroke-linecap="round" stroke-linejoin="round"/>
</g>
<defs>
<clipPath id="clip0_128_488">
<rect width="14" height="14" fill="white" transform="translate(14.1947 15.9074) rotate(-7.02737)"/>
</clipPath>
</defs>
</svg>
