<svg width="44" height="44" viewBox="0 0 44 44" fill="none" xmlns="http://www.w3.org/2000/svg">
<rect x="16.7005" width="32" height="32" rx="16" transform="rotate(31.4592 16.7005 0)" fill="white"/>
<rect x="16.8661" y="0.687452" width="31" height="31" rx="15.5" transform="rotate(31.4592 16.8661 0.687452)" stroke="#89B4E2" stroke-opacity="0.18"/>
<g clip-path="url(#clip0_107_110)">
<path d="M18.3747 24.5683C15.4301 23.7925 16.6478 21.8021 15.8048 20.9444M20.9445 28.1921L22.1227 26.2664C22.2865 26.0406 22.4004 25.7824 22.4567 25.5092C22.5131 25.2359 22.5106 24.9538 22.4495 24.6815C24.1185 25.4633 26.1228 25.8758 27.785 23.159C28.21 22.4642 28.3515 21.6326 28.1803 20.8364C28.779 20.3673 29.174 19.6857 29.2832 18.9331C29.2832 18.9331 28.8026 18.3997 26.8871 18.4791C25.9357 17.4723 24.7335 16.7368 23.404 16.3481C22.6027 14.6064 21.9089 14.4213 21.9089 14.4213C21.2885 14.8612 20.8615 15.5232 20.7164 16.2698C19.9237 16.4814 19.2438 16.9919 18.8193 17.6941C17.1692 20.391 18.449 21.9878 19.8927 23.1378C19.6255 23.2068 19.3758 23.3313 19.1599 23.5031C18.944 23.675 18.7667 23.8904 18.6395 24.1354L17.4613 26.061" stroke="#4A6FA5" stroke-width="1.16667" stroke-linecap="round" stroke-linejoin="round"/>
</g>
<defs>
<clipPath id="clip0_107_110">
<rect width="14" height="14" fill="white" transform="translate(19.6806 12.3741) rotate(31.4592)"/>
</clipPath>
</defs>
</svg>
