<svg width="36" height="36" viewBox="0 0 36 36" fill="none" xmlns="http://www.w3.org/2000/svg">
<rect width="36" height="36" rx="10" fill="url(#paint0_linear_124_1512)"/>
<g clip-path="url(#clip0_124_1512)">
<path d="M25.3667 11.8417C24.941 11.4159 24.4357 11.0781 23.8795 10.8476C23.3232 10.6172 22.7271 10.4985 22.125 10.4985C21.5229 10.4985 20.9268 10.6172 20.3705 10.8476C19.8143 11.0781 19.309 11.4159 18.8833 11.8417L18 12.7251L17.1167 11.8417C16.2569 10.982 15.0909 10.499 13.875 10.499C12.6591 10.499 11.4931 10.982 10.6333 11.8417C9.77359 12.7015 9.29059 13.8675 9.29059 15.0834C9.29059 16.2993 9.77359 17.4653 10.6333 18.3251L11.5167 19.2084L18 25.6917L24.4833 19.2084L25.3667 18.3251C25.7925 17.8994 26.1303 17.3941 26.3608 16.8379C26.5912 16.2816 26.7099 15.6855 26.7099 15.0834C26.7099 14.4813 26.5912 13.8851 26.3608 13.3289C26.1303 12.7727 25.7925 12.2674 25.3667 11.8417Z" stroke="#00695C" stroke-width="1.66667" stroke-linecap="round" stroke-linejoin="round"/>
</g>
<defs>
<linearGradient id="paint0_linear_124_1512" x1="0" y1="0" x2="36" y2="36" gradientUnits="userSpaceOnUse">
<stop stop-color="#B2DFDB"/>
<stop offset="1" stop-color="#80CBC4"/>
</linearGradient>
<clipPath id="clip0_124_1512">
<rect width="20" height="20" fill="white" transform="translate(8 8)"/>
</clipPath>
</defs>
</svg>
