<svg width="50" height="50" viewBox="0 0 50 50" fill="none" xmlns="http://www.w3.org/2000/svg">
<rect x="18.7881" width="36" height="36" rx="10" transform="rotate(31.4592 18.7881 0)" fill="url(#paint0_linear_107_156)"/>
<g clip-path="url(#clip0_107_156)">
<path d="M26.2579 18.4328C26.5246 18.3677 26.8033 18.3695 27.0692 18.4381C27.3351 18.5067 27.5799 18.6399 27.7819 18.826C27.9839 19.012 28.1368 19.245 28.227 19.5044C28.3172 19.7637 28.342 20.0413 28.2991 20.3125C28.2561 20.5837 28.1469 20.8401 27.9809 21.0589C27.815 21.2778 27.5976 21.4522 27.3481 21.5667C27.0985 21.6812 26.8245 21.7323 26.5505 21.7155C26.2764 21.6986 26.0107 21.6143 25.7771 21.47L19.3795 17.5558M21.945 30.2722C22.0085 30.5394 22.1371 30.7867 22.3192 30.9922C22.5013 31.1977 22.7314 31.355 22.9889 31.4502C23.2465 31.5453 23.5236 31.5754 23.7956 31.5376C24.0676 31.4999 24.326 31.3955 24.548 31.2338C24.7699 31.0721 24.9484 30.8581 25.0677 30.6108C25.187 30.3635 25.2433 30.0905 25.2317 29.8162C25.2201 29.5418 25.1408 29.2746 25.001 29.0383C24.8612 28.8019 24.6652 28.6038 24.4304 28.4615L15.9002 23.2425M30.6785 24.205C31.0114 24.1253 31.3589 24.1288 31.6901 24.2153C32.0213 24.3018 32.3261 24.4686 32.5776 24.7009C32.829 24.9332 33.0193 25.2239 33.1317 25.5473C33.244 25.8707 33.275 26.2168 33.2217 26.5549C33.1685 26.8931 33.0328 27.213 32.8265 27.4862C32.6203 27.7594 32.3499 27.9776 32.0392 28.1215C31.7286 28.2653 31.3873 28.3304 31.0455 28.311C30.7037 28.2916 30.372 28.1882 30.0796 28.0101L17.6399 20.3992" stroke="#7B1FA2" stroke-width="1.66667" stroke-linecap="round" stroke-linejoin="round"/>
</g>
<defs>
<linearGradient id="paint0_linear_107_156" x1="18.7881" y1="0" x2="54.7881" y2="36" gradientUnits="userSpaceOnUse">
<stop stop-color="#E1BEE7"/>
<stop offset="1" stop-color="#CE93D8"/>
</linearGradient>
<clipPath id="clip0_107_156">
<rect width="20" height="20" fill="white" transform="translate(21.4371 10.9992) rotate(31.4592)"/>
</clipPath>
</defs>
</svg>
