<svg width="44" height="44" viewBox="0 0 44 44" fill="none" xmlns="http://www.w3.org/2000/svg">
<rect x="16.7005" width="32" height="32" rx="16" transform="rotate(31.4592 16.7005 0)" fill="white"/>
<rect x="16.8661" y="0.687452" width="31" height="31" rx="15.5" transform="rotate(31.4592 16.8661 0.687452)" stroke="#89B4E2" stroke-opacity="0.18"/>
<g clip-path="url(#clip0_127_465)">
<path d="M27.435 25.3122L25.215 23.6834C24.9229 23.4506 24.5144 23.3931 24.1647 23.5105L23.0571 23.8628C22.8239 23.9216 22.6489 23.922 22.5322 23.9222C22.2403 23.8061 21.7147 23.5155 21.1302 22.9334C20.5456 22.3513 20.2529 21.8269 20.1356 21.5354C20.0771 21.4189 20.0768 21.3022 20.1346 21.0104L20.4823 19.9014C20.5982 19.5511 20.5391 19.1429 20.3051 18.8517L18.7256 16.6383C18.2576 15.9976 17.3243 15.9995 16.8589 16.6421L15.6951 18.0445C14.7642 19.2131 14.5342 20.8469 15.3536 22.1869C15.9974 23.2356 16.9336 24.6337 18.161 25.7978C19.3301 26.9621 20.6736 27.8927 21.7833 28.5321C23.1266 29.346 24.8179 29.1675 26.041 28.2317L27.4387 27.1205C28.0796 26.7109 28.0193 25.7776 27.435 25.3122ZM25.3392 27.3581C24.4657 28.0599 23.2992 28.179 22.423 27.5974C21.4301 26.9578 20.1449 26.0854 19.0345 25.0377C17.9239 23.9316 16.9879 22.6502 16.4025 21.6597C15.8756 20.7275 15.99 19.6189 16.63 18.8009L17.7354 17.3403L19.3732 19.5537L19.0255 20.6627C18.9096 21.0129 18.8522 21.4797 19.0281 21.946C19.2041 22.4123 19.5554 23.0533 20.2568 23.7519C20.9583 24.4504 21.6006 24.7991 22.0677 24.9732C22.5347 25.1472 23.0012 25.0879 23.4093 24.9704L24.5169 24.6181L26.737 26.2469L25.3392 27.3581ZM21.4089 16.6328C21.35 16.3413 21.5243 15.9909 21.8742 15.9319C23.7401 15.578 25.5494 16.041 26.7767 17.1468C28.0624 18.3109 28.7078 20.1179 28.3623 22.3353C28.3046 22.627 28.0134 22.861 27.7216 22.8032C27.4298 22.7455 27.1959 22.4543 27.2536 22.1625C27.5414 20.2953 27.0136 18.8964 26.0785 18.0233C25.1433 17.1502 23.6842 16.7448 22.1681 17.0396C21.76 17.1571 21.4679 16.9244 21.4089 16.6328Z" fill="#4A6FA5"/>
<path d="M21.3553 18.9079C21.2963 18.6164 21.5291 18.3242 21.8789 18.2652C23.9783 17.9692 26.0817 19.5983 25.8536 22.1654C25.7959 22.4572 25.5631 22.7493 25.213 22.6917C24.8629 22.6341 24.6291 22.4012 24.6867 22.0511C24.8581 20.3008 23.4558 19.1953 22.0562 19.3732C21.7063 19.4322 21.4142 19.1995 21.3553 18.9079Z" fill="#4A6FA5"/>
</g>
<defs>
<clipPath id="clip0_127_465">
<rect width="14" height="14" fill="white" transform="translate(14.5819 15.6551) rotate(-0.117233)"/>
</clipPath>
</defs>
</svg>
