<svg width="44" height="44" viewBox="0 0 44 44" fill="none" xmlns="http://www.w3.org/2000/svg">
<rect x="16.7005" width="32" height="32" rx="16" transform="rotate(31.4592 16.7005 0)" fill="white"/>
<rect x="16.8661" y="0.687452" width="31" height="31" rx="15.5" transform="rotate(31.4592 16.8661 0.687452)" stroke="#89B4E2" stroke-opacity="0.18"/>
<g clip-path="url(#clip0_107_92)">
<path d="M27.5308 18.5447L22.5549 15.5004C21.1808 14.6597 19.3854 15.0921 18.5447 16.4661L15.5004 21.442C14.6597 22.8161 15.0921 24.6115 16.4661 25.4522L21.442 28.4965C22.8161 29.3372 24.6115 28.9048 25.4522 27.5308L28.4965 22.5549C29.3372 21.1808 28.9048 19.3854 27.5308 18.5447Z" stroke="#4A6FA5" stroke-width="1.16667" stroke-linecap="round" stroke-linejoin="round"/>
<path d="M24.1807 22.9027C23.9887 23.3544 23.6592 23.7341 23.239 23.9877C22.8189 24.2413 22.3294 24.356 21.8403 24.3154C21.3512 24.2749 20.8873 24.0811 20.5147 23.7617C20.1421 23.4423 19.8796 23.0136 19.7647 22.5364C19.6498 22.0593 19.6883 21.558 19.8747 21.104C20.061 20.65 20.3858 20.2663 20.8028 20.0075C21.2198 19.7487 21.7078 19.628 22.1974 19.6625C22.687 19.6971 23.1532 19.8851 23.5297 20.1999C23.9138 20.521 24.1845 20.9571 24.3017 21.4438C24.4189 21.9305 24.3765 22.442 24.1807 22.9027Z" stroke="#4A6FA5" stroke-width="1.16667" stroke-linecap="round" stroke-linejoin="round"/>
<path d="M26.4096 20.9361L26.4146 20.9392" stroke="#4A6FA5" stroke-width="1.16667" stroke-linecap="round" stroke-linejoin="round"/>
</g>
<defs>
<clipPath id="clip0_107_92">
<rect width="14" height="14" fill="white" transform="translate(19.6806 12.3741) rotate(31.4592)"/>
</clipPath>
</defs>
</svg>
