<svg width="44" height="44" viewBox="0 0 44 44" fill="none" xmlns="http://www.w3.org/2000/svg">
<rect x="16.7005" width="32" height="32" rx="16" transform="rotate(31.4592 16.7005 0)" fill="white"/>
<rect x="16.8661" y="0.687452" width="31" height="31" rx="15.5" transform="rotate(31.4592 16.8661 0.687452)" stroke="#89B4E2" stroke-opacity="0.18"/>
<path d="M15.1894 20.8124L14.0542 20.8505C14.2028 22.3281 13.8781 23.4633 13.8781 23.4633L14.5242 24.5583C15.3195 24.1855 15.1894 20.8124 15.1894 20.8124ZM18.8761 20.6885L17.7401 20.7267C17.7401 20.7267 17.8368 24.1009 18.6553 24.4195L19.2265 23.2836C19.2265 23.2836 18.8271 22.1727 18.8761 20.6885ZM16.0199 24.1809L15.3042 24.205C15.3323 25.0416 16.0422 25.0915 16.0422 25.0915L16.4038 25.0793C17.131 25.0549 17.1327 24.2227 17.1327 24.2227L16.9663 19.2701L15.8562 19.3074L16.0199 24.1809ZM19.7606 21.6804L20.5007 21.6555L19.9748 22.8264C19.9748 22.8264 19.6676 23.4848 20.1949 23.4891L21.4235 23.4479L21.8844 22.5401L21.2705 22.5607C21.2526 22.5613 21.2349 22.5573 21.219 22.5491C21.2031 22.5408 21.1896 22.5287 21.1797 22.5138C21.1698 22.4989 21.1639 22.4817 21.1626 22.4639C21.1612 22.446 21.1644 22.4281 21.1719 22.4119L22.0294 20.5833L20.9649 20.6191L20.9061 20.7504L20.8355 20.7527C20.8176 20.7533 20.7999 20.7493 20.784 20.7411C20.7681 20.7329 20.7546 20.7207 20.7447 20.7058C20.7348 20.6909 20.7289 20.6737 20.7276 20.6559C20.7262 20.638 20.7294 20.6202 20.7369 20.6039L21.4523 19.1201L20.3878 19.1559L19.5406 21.0176C19.5406 21.0176 19.2333 21.676 19.7606 21.6804ZM19.9957 23.8549C19.9957 23.8549 19.8601 23.8716 19.7667 23.7842L19.2515 24.8642C19.2515 24.8642 19.346 24.9843 19.5314 24.978L20.8976 24.9321L21.4447 23.8062L19.9957 23.8549Z" fill="#4A6FA5"/>
<path d="M24.0155 20.5158L24.7176 20.4922L24.6796 19.3624L22.1676 19.4468L22.2056 20.5766L22.9183 20.5527L23.0271 23.7888L21.974 23.8242L21.481 24.9087L25.2246 24.7829L25.1888 23.7161L24.1243 23.7519L24.0155 20.5158ZM29.0766 21.1802L28.9474 21.1845L28.9229 20.4536C28.8999 19.769 28.3266 19.233 27.642 19.256L27.2142 19.2703L27.2026 18.9254L26.1168 18.9619L26.1284 19.3068L25.4468 19.3297L25.484 20.4375L26.1656 20.4146L26.1946 21.277L25.108 21.3136L25.1453 22.4214L26.2311 22.3849L26.3104 24.7464L27.3962 24.7099L27.3169 22.3492L28.8114 22.2989C28.9581 22.294 29.0814 22.4093 29.0863 22.5559L29.1254 23.7192L28.089 23.7541C28.1063 24.2685 28.5375 24.6716 29.0519 24.6543L29.3322 24.6449C29.8466 24.6276 30.2498 24.1964 30.2325 23.682L30.1832 22.2171C30.1649 21.6244 29.6685 21.1603 29.0766 21.1802ZM27.2514 20.3789L27.642 20.3658C27.7354 20.3627 27.8132 20.4353 27.8163 20.5288L27.8396 21.2218L27.2804 21.2406L27.2514 20.3789Z" fill="#4A6FA5"/>
<path d="M30.0848 19.7185C30.0749 19.4214 29.8259 19.1887 29.5296 19.1986C29.3869 19.2034 29.252 19.2647 29.1545 19.369C29.057 19.4732 29.0049 19.612 29.0097 19.7546L29.0278 20.2926L29.5657 20.2745C29.862 20.2646 30.0948 20.0156 30.0848 19.7185Z" fill="#4A6FA5"/>
</svg>
