<svg width="73" height="40" viewBox="0 0 73 40" fill="none" xmlns="http://www.w3.org/2000/svg">
<path d="M69.7879 0.0158136C70.3315 -0.0814897 70.8511 0.280343 70.9484 0.823988L72.5341 9.6832C72.6314 10.2269 72.2695 10.7464 71.7259 10.8437C71.1822 10.941 70.6627 10.5792 70.5654 10.0356L69.1559 2.16071L61.281 3.57018C60.7374 3.66748 60.2178 3.30565 60.1205 2.76201C60.0232 2.21836 60.385 1.69877 60.9287 1.60147L69.7879 0.0158136ZM39.1731 27.1169L39.0611 28.1106L39.1731 27.1169ZM33.7475 5.88468L34.0241 4.9237L33.7475 5.88468ZM23.4243 34.8124L23.6397 35.789V35.789L23.4243 34.8124ZM1.77967 36.4519C2.32226 36.3488 2.84563 36.7052 2.94866 37.2478C3.05169 37.7904 2.69535 38.3137 2.15276 38.4168L1.96622 37.4343L1.77967 36.4519ZM69.9641 1.00017L70.7847 1.57164C70.411 2.1082 70.0208 2.6912 69.6126 3.31402L68.7762 2.76583L67.9399 2.21763C68.3541 1.58562 68.7554 0.985895 69.1434 0.428707L69.9641 1.00017ZM66.4729 6.34445L67.3144 6.8846C66.5771 8.03344 65.7956 9.24027 64.9696 10.469L64.1397 9.91107L63.3098 9.35318C64.1239 8.14208 64.8964 6.9492 65.6313 5.8043L66.4729 6.34445ZM61.6948 13.3991L62.5004 13.9917C61.6546 15.1415 60.7673 16.2852 59.8367 17.3953L59.0703 16.7528L58.304 16.1104C59.2026 15.0384 60.0638 13.9289 60.8893 12.8066L61.6948 13.3991ZM56.1995 19.8973L56.9054 20.6057C55.8629 21.6445 54.7704 22.6227 53.6257 23.5097L53.0132 22.7193L52.4007 21.9288C53.4703 21.0999 54.5008 20.1784 55.4936 19.189L56.1995 19.8973ZM49.4502 25.0446L49.9196 25.9276C48.5997 26.6294 47.2169 27.1968 45.7699 27.5923L45.5062 26.6277L45.2426 25.6631C46.5323 25.3106 47.7775 24.8014 48.9808 24.1617L49.4502 25.0446ZM41.303 27.2238L41.3161 28.2238C40.5768 28.2334 39.8251 28.1968 39.0611 28.1106L39.1731 27.1169L39.2851 26.1232C39.9665 26.2 40.6347 26.2325 41.29 26.2239L41.303 27.2238ZM39.1731 27.1169L39.0611 28.1106C38.4068 28.0369 37.7724 27.9368 37.1577 27.8124L37.3561 26.8323L37.5545 25.8522C38.1111 25.9648 38.6879 26.0559 39.2851 26.1232L39.1731 27.1169ZM33.8443 25.7634L33.4589 26.6862C32.2128 26.1657 31.0803 25.5336 30.0617 24.8161L30.6375 23.9986L31.2134 23.181C32.1132 23.8148 33.1179 24.3763 34.2296 24.8406L33.8443 25.7634ZM27.9032 21.5575L27.1548 22.2208C26.2596 21.2108 25.5192 20.1264 24.9327 19.0099L25.818 18.5449L26.7033 18.0798C27.2157 19.0552 27.8644 20.0062 28.6515 20.8942L27.9032 21.5575ZM24.5443 15.1102L23.5685 15.3292C23.2639 13.9717 23.1746 12.6222 23.3088 11.3545L24.3032 11.4598L25.2977 11.5651C25.1886 12.5955 25.2583 13.7253 25.52 14.8913L24.5443 15.1102ZM25.4781 8.01779L24.6462 7.46283C25.4346 6.28113 26.5553 5.36234 27.9896 4.85451L28.3234 5.79718L28.6571 6.73984C27.6489 7.09681 26.8701 7.73316 26.31 8.57274L25.4781 8.01779ZM31.9394 5.50006L32.0703 4.50866C32.6952 4.59116 33.3467 4.72871 34.0241 4.9237L33.7475 5.88468L33.4709 6.84566C32.8804 6.67571 32.3265 6.55984 31.8085 6.49146L31.9394 5.50006ZM33.7475 5.88468L34.0241 4.9237C34.7589 5.13521 35.4893 5.52953 36.1826 6.04176L35.5884 6.84606L34.9941 7.65035C34.4365 7.23835 33.9187 6.97456 33.4709 6.84566L33.7475 5.88468ZM38.4143 9.89435L39.2421 9.33326C40.0287 10.4937 40.7219 11.8275 41.2439 13.2713L40.3035 13.6113L39.3631 13.9514C38.8986 12.6669 38.2819 11.4812 37.5865 10.4554L38.4143 9.89435ZM41.2027 17.6807L42.1994 17.5995C42.3178 19.0538 42.2336 20.5569 41.8823 22.0572L40.9086 21.8292L39.935 21.6012C40.2346 20.3217 40.3091 19.0285 40.206 17.7618L41.2027 17.6807ZM39.3055 25.6676L40.1534 26.1977C39.4143 27.38 38.4633 28.5156 37.2743 29.5791L36.6076 28.8338L35.941 28.0884C36.9964 27.1445 37.8232 26.1523 38.4576 25.1375L39.3055 25.6676ZM33.2143 31.251L33.7111 32.1189C32.5476 32.7848 31.2494 33.4018 29.8064 33.9616L29.4448 33.0293L29.0831 32.097C30.4413 31.5701 31.6483 30.9951 32.7176 30.3831L33.2143 31.251ZM25.4669 34.3158L25.7249 35.2819C25.0542 35.461 24.3593 35.6302 23.6397 35.789L23.4243 34.8124L23.2089 33.8359C23.9011 33.6832 24.5674 33.5209 25.2088 33.3496L25.4669 34.3158ZM23.4243 34.8124L23.6397 35.789C22.9711 35.9364 22.3205 36.0779 21.6875 36.2135L21.478 35.2357L21.2685 34.2579C21.8975 34.1231 22.5442 33.9825 23.2089 33.8359L23.4243 34.8124ZM17.5752 36.0439L17.7706 37.0246C16.3531 37.3071 15.0432 37.5552 13.8347 37.7724L13.6578 36.7881L13.481 35.8039C14.6762 35.5891 15.9736 35.3434 17.3797 35.0632L17.5752 36.0439ZM9.73205 37.442L9.88183 38.4307C8.32129 38.6672 6.9986 38.8353 5.88761 38.9491L5.78566 37.9543L5.6837 36.9595C6.75724 36.8495 8.04755 36.6858 9.58226 36.4533L9.73205 37.442ZM1.81681 38.1197L1.7318 39.1161C1.39223 39.0871 1.05337 39.0345 0.779265 38.9233C0.653069 38.8721 0.418175 38.7612 0.23497 38.5275C0.133135 38.3976 0.0405532 38.2202 0.010205 38.0004C-0.0204232 37.7786 0.0211409 37.5771 0.0915971 37.4154C0.21767 37.1261 0.43467 36.961 0.543183 36.8872C0.672774 36.7992 0.81022 36.7344 0.931021 36.686C1.17541 36.588 1.46845 36.511 1.77967 36.4519L1.96622 37.4343L2.15276 38.4168C1.91543 38.4618 1.75828 38.5091 1.67524 38.5424C1.63233 38.5596 1.63675 38.5622 1.66707 38.5416C1.67631 38.5353 1.82778 38.4377 1.92512 38.2143C1.98122 38.0856 2.01761 37.9166 1.9914 37.7268C1.96547 37.539 1.88688 37.393 1.80901 37.2937C1.73503 37.1993 1.66 37.1439 1.61763 37.1164C1.57355 37.0878 1.54106 37.074 1.53107 37.0699C1.51831 37.0648 1.6124 37.0986 1.90181 37.1233L1.81681 38.1197Z" fill="#FF7F50"/>
</svg>
